<svg xmlns="http://www.w3.org/2000/svg" width="24" height="24" fill="none" viewBox="0 0 24 24"><path fill="#262626" d="M2.97 16.403a1 1 0 0 1 1.03.97c.023.77.079 1.136.177 1.38l.045.098.005.01.078.14c.195.32.485.587.847.777.245.126.597.195 1.475.222a1 1 0 0 1-.06 2c-.877-.027-1.646-.09-2.333-.443l-.006-.004a4.1 4.1 0 0 1-1.784-1.788c-.354-.688-.418-1.455-.444-2.332a1 1 0 0 1 .97-1.03m10.822 3.583a1 1 0 0 1 0 2h-3.598a1 1 0 0 1 0-2zm7.238-3.596a1 1 0 0 1 .97 1.03c-.027.877-.09 1.644-.444 2.332l-.004.006a4.1 4.1 0 0 1-1.788 1.784c-.687.353-1.455.418-2.332.444a1 1 0 0 1-.06-1.999c.88-.026 1.233-.096 1.478-.222l.01-.006c.383-.192.702-.512.92-.928.124-.245.193-.598.22-1.472a1 1 0 0 1 1.03-.97M3 9.194a1 1 0 0 1 1 1v3.598a1 1 0 1 1-2 0v-3.598a1 1 0 0 1 1-1m17.986 0a1 1 0 0 1 1 1v3.598a1 1 0 1 1-2 0v-3.598c0-.552.448-1 1-1m-14.42-7.18a1 1 0 0 1 .061 1.999c-.88.026-1.233.096-1.478.222l-.01.006a2.1 2.1 0 0 0-.92.928c-.124.245-.193.598-.22 1.472a1 1 0 0 1-2-.06c.027-.878.09-1.646.444-2.333l.004-.006a4.1 4.1 0 0 1 1.787-1.784c.687-.354 1.456-.418 2.333-.444m10.853 0c.873.026 1.637.09 2.322.44v-.002l.01.005v.001a4.1 4.1 0 0 1 1.63 1.506l.159.278.003.006.119.262c.249.62.3 1.303.324 2.07a1 1 0 0 1-2 .06c-.026-.873-.095-1.226-.219-1.471l-.087-.151a2.1 2.1 0 0 0-.833-.777l-.01-.006c-.246-.125-.598-.196-1.478-.222a1 1 0 0 1 .06-2M13.791 2a1 1 0 1 1 0 2h-3.597a1 1 0 0 1 0-2z"/></svg>