<svg xmlns="http://www.w3.org/2000/svg" width="24" height="24" fill="none" viewBox="0 0 24 24"><path fill="#262626" d="M11.187 2.357c.599.435.884 1.14.813 1.826l6.099 4.432a2 2 0 0 1 1.988.208l1.213.882a2 2 0 0 1 .442 2.793l-3.526 4.854a2 2 0 0 1-2.794.443l-1.213-.882a2 2 0 0 1-.813-1.826l-.644-.469-4.93 7.437a2 2 0 0 1-2.844.512L2.79 20.978a2 2 0 0 1-.38-2.875l5.6-6.93-.714-.518c-.63.28-1.389.227-1.988-.208l-1.213-.881a2 2 0 0 1-.443-2.794L7.18 1.918a2 2 0 0 1 2.794-.442zM3.967 19.36l2.186 1.59 4.98-7.508L9.63 12.35zM5.27 7.948l1.214.881 3.527-4.854-1.214-.881zm10.113 7.347 1.214.882 3.526-4.854-1.213-.882zm-6.693-6.1 5.663 4.115 2.351-3.236-5.663-4.114z"/></svg>