<svg xmlns="http://www.w3.org/2000/svg" width="24" height="24" fill="none" viewBox="0 0 24 24"><path fill="#262626" d="M12 2.35c2.62 0 2.952.01 3.982.053s1.729.215 2.34.451c.634.247 1.17.58 1.707 1.117.537.536.87 1.073 1.116 1.707.237.612.398 1.32.452 2.34.043 1.03.053 1.363.053 3.982s-.01 2.952-.053 3.982-.215 1.729-.452 2.34a4.75 4.75 0 0 1-1.116 1.707 4.75 4.75 0 0 1-1.707 1.116c-.612.237-1.32.398-2.34.452-1.03.043-1.363.053-3.982.053s-2.952-.01-3.982-.053-1.728-.215-2.34-.452A4.75 4.75 0 0 1 3.97 20.03a4.75 4.75 0 0 1-1.117-1.707c-.236-.611-.397-1.32-.45-2.34C2.36 14.952 2.35 14.62 2.35 12s.01-2.952.053-3.982.215-1.728.451-2.34c.247-.634.58-1.17 1.117-1.707a4.75 4.75 0 0 1 1.707-1.117c.612-.236 1.32-.397 2.34-.45C9.048 2.36 9.38 2.35 12 2.35m0 1.739c-2.587 0-2.888 0-3.907.054-.945.043-1.45.204-1.793.333-.45.171-.773.386-1.106.718A2.95 2.95 0 0 0 4.476 6.3c-.13.343-.29.848-.333 1.793-.043 1.02-.054 1.32-.054 3.907s0 2.888.054 3.907c.043.945.204 1.45.333 1.793.171.45.386.773.718 1.106.333.332.655.547 1.106.718.343.13.848.29 1.793.333 1.02.043 1.32.054 3.907.054s2.887 0 3.907-.054c.945-.043 1.45-.204 1.793-.333.45-.171.773-.386 1.106-.718.332-.333.547-.655.718-1.106.13-.343.29-.848.333-1.793.043-1.02.054-1.32.054-3.907 0-2.576 0-2.887-.054-3.907-.043-.945-.204-1.45-.333-1.793a2.95 2.95 0 0 0-.718-1.106 2.95 2.95 0 0 0-1.106-.718c-.343-.13-.848-.29-1.793-.333-1.02-.043-1.32-.054-3.907-.054m-.01 2.952A4.96 4.96 0 0 1 16.947 12a4.96 4.96 0 0 1-4.959 4.959A4.96 4.96 0 0 1 7.03 12a4.96 4.96 0 0 1 4.96-4.959m0 1.74A3.216 3.216 0 0 0 8.768 12a3.217 3.217 0 0 0 3.22 3.22A3.217 3.217 0 0 0 15.21 12a3.216 3.216 0 0 0-3.22-3.22m5.152-3.093c.644 0 1.159.516 1.159 1.16s-.515 1.159-1.16 1.159a1.155 1.155 0 0 1-1.159-1.16c0-.643.516-1.159 1.16-1.159"/></svg>