<svg xmlns="http://www.w3.org/2000/svg" width="24" height="24" fill="none" viewBox="0 0 24 24"><path fill="#262626" d="M12 13c2.383 0 4.585.655 6.22 1.768 1.629 1.108 2.78 2.744 2.78 4.676A2.556 2.556 0 0 1 18.444 22H5.556A2.556 2.556 0 0 1 3 19.444c0-1.932 1.151-3.568 2.78-4.676C7.415 13.655 9.617 13 12 13m0 2c-2.035 0-3.833.563-5.094 1.42C5.64 17.284 5 18.37 5 19.445c0 .307.249.556.556.556h12.888a.556.556 0 0 0 .556-.556c0-1.074-.64-2.161-1.906-3.023C15.833 15.563 14.034 15 12 15m0-13a5 5 0 1 1 0 10 5 5 0 0 1 0-10m0 2a3 3 0 1 0 0 6 3 3 0 0 0 0-6"/></svg>