<svg xmlns="http://www.w3.org/2000/svg" width="24" height="24" fill="none" viewBox="0 0 24 24"><path fill="#262626" d="M12 3a8 8 0 0 1 5.459 13.845l1.281 1.724c1.175 1.584.045 3.831-1.927 3.831H7.188c-1.973 0-3.103-2.247-1.927-3.83l1.279-1.725A8 8 0 0 1 12 3m4.015 14.918A7.96 7.96 0 0 1 12 19a7.96 7.96 0 0 1-4.015-1.081l-1.279 1.724a.6.6 0 0 0 .481.958h9.625a.6.6 0 0 0 .483-.958zm-2.694-4.339a2.88 2.88 0 0 1-2.636.003l-2.246 2.246A5.97 5.97 0 0 0 12 17a5.97 5.97 0 0 0 3.565-1.176zM7.175 7.434A5.97 5.97 0 0 0 6 11c0 1.33.434 2.559 1.167 3.554l2.246-2.246a2.89 2.89 0 0 1 .007-2.63zm7.407 2.25a2.88 2.88 0 0 1 .007 2.617l2.247 2.247A5.97 5.97 0 0 0 18 11a5.97 5.97 0 0 0-1.172-3.56zM12 9.9a1.1 1.1 0 1 0 0 2.2 1.1 1.1 0 0 0 0-2.2M12 5a5.97 5.97 0 0 0-3.549 1.162L10.7 8.41a2.89 2.89 0 0 1 2.609.003l2.246-2.246A5.97 5.97 0 0 0 12 5"/><path fill="#fff" d="M12.396 6.485a.5.5 0 0 1-.792 0l-2.448-3.18a.5.5 0 0 1 .396-.805h4.896a.5.5 0 0 1 .396.805z"/><path fill="#262626" d="M13.11 7.034a1.4 1.4 0 0 1-2.108.128l-.111-.128-2.449-3.18C7.734 2.933 8.39 1.6 9.552 1.6h4.896c1.162 0 1.818 1.333 1.11 2.254zm.525-3.634h-3.27L12 5.524z"/></svg>