<svg xmlns="http://www.w3.org/2000/svg" width="24" height="24" fill="none" viewBox="0 0 24 24"><path fill="#262626" d="M12 3a1 1 0 0 1 0 2H5a1 1 0 0 0-1 1v13a1 1 0 0 0 1 1h13a1 1 0 0 0 1-1v-7a1 1 0 0 1 2 0v7a3 3 0 0 1-3 3H5a3 3 0 0 1-3-3V6a3 3 0 0 1 3-3zm6.36-.375a1.9 1.9 0 0 1 1.484.087c.312.155.572.43.793.651.193.194.428.417.588.679l.063.114.086.203a1.9 1.9 0 0 1-.086 1.484c-.116.235-.3.44-.478.62l-9.673 9.673a.9.9 0 0 1-.637.264h-2a.9.9 0 0 1-.9-.9v-2c0-.239.095-.468.263-.637l9.673-9.673c.181-.178.386-.362.62-.478zm.604 1.696-.04.034a8 8 0 0 0-.287.281L9.4 13.873v.726h.727l9.236-9.236c.144-.143.225-.225.282-.288q.022-.027.03-.04.015-.036.002-.072l-.032-.038a8 8 0 0 0-.282-.289 8 8 0 0 0-.288-.28q-.027-.026-.04-.034a.1.1 0 0 0-.071-.001"/></svg>