<svg width="16" height="15" viewBox="0 0 16 15" fill="none" xmlns="http://www.w3.org/2000/svg">
<path d="M7.85724 0C12.1943 0 15.7144 2.72635 15.7145 6.09701C15.7145 9.46772 12.1944 12.2021 7.85724 12.2021C7.52733 12.2021 7.19703 12.1468 6.87498 12.1468L3.05663 14.6851C3.00261 14.7223 2.93835 14.7422 2.87271 14.742C2.80721 14.7418 2.74336 14.7217 2.68961 14.6842C2.63574 14.6466 2.59438 14.5929 2.57161 14.5312C2.54894 14.4697 2.54541 14.4027 2.56184 14.3392L3.43423 11.1418C1.35996 10.026 0 8.19486 0 6.09701C9.67231e-05 2.73428 3.5203 0.000119865 7.85724 0Z" fill="#262626"/>
</svg>
