<svg width="70" height="40" viewBox="0 0 70 40" fill="none" xmlns="http://www.w3.org/2000/svg">
<path d="M53.599 21.6175L57.1985 22.4167L56.8354 24.0809C58.1493 23.1037 59.9641 22.7135 61.9139 23.1464C65.2134 23.879 66.9858 27.2863 66.3256 30.312L64.2129 39.9945L60.6134 39.1953L62.5611 30.2693C62.9902 28.3025 61.9705 26.49 60.0208 26.0571C58.0711 25.6242 56.2412 26.8041 55.812 28.7708L53.8644 37.6968L50.2649 36.8976L53.599 21.6175Z" fill="#262626"/>
<path d="M47.7507 0.309089L51.4276 0.564849L51.3117 2.26484C52.4684 1.10308 54.2063 0.447581 56.198 0.586117C60.4877 0.884504 63.4733 4.50828 63.1574 9.14463C62.8414 13.781 59.3819 17.1117 55.0922 16.8133C53.1005 16.6748 51.4679 15.7848 50.4797 14.4739L49.9321 22.5102L46.2552 22.2545L47.7507 0.309089ZM54.7216 13.2162C57.1729 13.3867 59.1377 11.66 59.3273 8.87821C59.5168 6.0964 57.8048 4.11398 55.3535 3.94348C52.749 3.76231 50.7842 5.48897 50.5946 8.27078C50.405 11.0526 52.1171 13.035 54.7216 13.2162Z" fill="#262626"/>
<path d="M2.47423 5.94116L6.00884 4.88775L6.48747 6.52192C7.1703 5.02618 8.57276 3.80056 10.4873 3.22996C14.611 2.00097 18.6611 4.34757 19.9665 8.80441C21.2718 13.2612 19.1799 17.5999 15.0562 18.8289C13.1416 19.3995 11.304 19.1395 9.92496 18.2583L12.1876 25.9834L8.653 27.0369L2.47423 5.94116ZM13.4663 15.5875C15.8227 14.8853 17.0678 12.5758 16.2846 9.90172C15.5014 7.22762 13.2119 5.97159 10.8555 6.67387C8.35184 7.42005 7.10669 9.72949 7.88991 12.4036C8.67313 15.0777 10.9626 16.3337 13.4663 15.5875Z" fill="#262626"/>
<g clip-path="url(#clip0_8083_254)">
<path d="M33.8746 5.51672C39.2941 5.51677 43.1395 8.93771 44.2948 13.1611C44.918 15.4395 44.7481 17.9075 43.6922 20.1504C45.4413 21.384 46.7698 23.1488 47.5567 25.0904C49.0494 28.7735 48.7169 33.3824 45.4561 36.6829C42.1685 40.0106 37.8917 40.126 34.4715 38.794C33.1626 38.2842 31.9111 37.5353 30.8387 36.6204C28.9595 38.294 26.3823 39.4559 23.1955 39.2395C20.1147 39.0302 17.6999 37.7938 16.0453 35.9391C14.4085 34.1043 13.5926 31.7522 13.5191 29.4103C13.3728 24.7516 16.1997 19.7741 21.9259 18.6969C22.7482 18.5422 23.9993 18.4892 25.2701 18.6902C26.5169 18.8875 28.0407 19.3703 29.1362 20.5121C29.7513 21.1532 29.7303 22.1716 29.0892 22.7867C28.4481 23.4018 27.4297 23.3807 26.8146 22.7396C26.4194 22.3277 25.7049 22.0165 24.7674 21.8682C23.8539 21.7237 22.9743 21.7735 22.5208 21.8588C18.6403 22.5888 16.6286 25.9244 16.7349 29.3094C16.7877 30.9893 17.3708 32.5919 18.4463 33.7975C19.5041 34.9832 21.1152 35.8733 23.4135 36.0294C25.5913 36.1772 27.3825 35.3954 28.7132 34.21C28.1733 33.361 27.7882 32.45 27.6095 31.5082C27.347 30.1243 27.2449 28.5665 27.7153 27.3142C27.9668 26.6446 28.4136 25.9844 29.1514 25.558C29.8858 25.1336 30.7164 25.0522 31.5285 25.1729C32.4326 25.3073 33.1897 25.7588 33.7152 26.4519C34.2156 27.112 34.4395 27.8993 34.5059 28.6501C34.6373 30.136 34.1901 31.8424 33.3724 33.3876C33.2341 33.6488 33.0824 33.9097 32.9182 34.1684C33.6755 34.8189 34.5985 35.3905 35.6392 35.7958C38.1829 36.7865 41.0004 36.615 43.1673 34.4217C45.361 32.2012 45.6787 29.0227 44.5748 26.2988C43.9992 24.8787 43.0704 23.6608 41.8922 22.819C41.0781 23.7075 40.0783 24.5162 38.8831 25.2066C37.5534 25.9748 36.1644 26.1709 34.9532 25.7097C33.7585 25.2548 32.9593 24.2332 32.7426 23.0728C32.5218 21.8909 32.9133 20.6316 33.9159 19.7184C34.8984 18.8235 36.3327 18.369 38.0784 18.369C39.0363 18.369 39.9444 18.504 40.7954 18.7508C41.5211 17.1903 41.6031 15.5164 41.1911 14.0102C40.4076 11.1455 37.8032 8.73421 33.8746 8.73417C31.8916 8.73416 30.1153 9.57773 28.8374 10.8009C27.5328 12.0496 26.8934 13.5441 26.9246 14.7094C26.9484 15.5976 26.2475 16.3369 25.3593 16.3608C24.4712 16.3845 23.732 15.6838 23.7082 14.7957C23.6465 12.4934 24.8389 10.1744 26.6128 8.47652C28.4134 6.75308 30.9629 5.51672 33.8746 5.51672ZM31.0184 28.3177C30.8756 28.3035 30.8671 28.325 30.8103 28.3469C30.7593 28.383 30.7033 28.4736 30.6845 28.5236C30.5352 28.9212 30.536 29.6729 30.7704 30.9084C30.7896 31.0094 30.8143 31.1117 30.8437 31.2149C31.2206 30.3078 31.3506 29.4955 31.3009 28.9334C31.2708 28.593 31.1847 28.44 31.1513 28.3958C31.143 28.3848 31.1053 28.3306 31.0184 28.3177ZM38.0784 21.5865C36.8532 21.5865 36.2932 21.9052 36.0825 22.0971C35.8922 22.2704 35.8919 22.4111 35.9052 22.4821C35.9225 22.5746 35.9829 22.6591 36.0981 22.703C36.197 22.7406 36.5685 22.8279 37.2737 22.4205C37.7177 22.164 38.1223 21.8888 38.4897 21.599C38.3539 21.5906 38.2168 21.5865 38.0784 21.5865Z" fill="url(#paint0_linear_8083_254)"/>
<path d="M21.9259 18.6968C16.1997 19.7741 13.3728 24.7516 13.5191 29.4103L16.7349 29.3094C16.6286 25.9244 18.6403 22.5888 22.5208 21.8588C22.9743 21.7735 23.8539 21.7237 24.7674 21.8682C25.7049 22.0165 26.4194 22.3277 26.8146 22.7396C27.4297 23.3807 28.4481 23.4018 29.0892 22.7867C29.7303 22.1716 29.7513 21.1532 29.1362 20.5121C28.0407 19.3703 26.5169 18.8874 25.2701 18.6902C23.9993 18.4892 22.7482 18.5422 21.9259 18.6968Z" fill="url(#paint1_linear_8083_254)"/>
<path d="M43.5924 24.5325C41.5401 21.75 38.5515 21.4793 37.6293 21.5977L37.7414 18.3825C42.2776 18.2766 44.7901 20.8033 46.0464 22.4784L43.5924 24.5325Z" fill="url(#paint2_linear_8083_254)"/>
<g opacity="0.5">
<path d="M27.325 38.6958L26.0298 35.7456C27.1415 35.3788 28.0283 34.8208 28.7329 34.1911C29.2987 34.9188 30.5124 36.4221 30.8407 36.6143C29.5294 37.77 28.1894 38.409 27.325 38.6958Z" fill="url(#paint3_linear_8083_254)"/>
<path d="M31.2511 30.0499L34.2499 31.2226C33.9083 32.3615 33.4427 33.3451 32.9074 34.1911C32.2897 33.6857 31.0116 32.3844 30.8407 31.2226C31.0604 30.7151 31.1871 30.296 31.2511 30.0499Z" fill="url(#paint4_linear_8083_254)"/>
</g>
<path d="M38.4526 21.5916C39.6196 20.5545 41.0182 18.3781 41.2581 17.5259L44.4091 18.1574C43.9491 20.0027 42.957 21.8797 41.5432 23.1697L38.4526 21.5916Z" fill="url(#paint5_linear_8083_254)"/>
</g>
<defs>
<linearGradient id="paint0_linear_8083_254" x1="48.0943" y1="16.9546" x2="10.827" y2="26.2231" gradientUnits="userSpaceOnUse">
<stop offset="0.397622" stop-color="#FFBC04"/>
<stop offset="0.689851" stop-color="#F38A11"/>
<stop offset="1" stop-color="#F66042"/>
</linearGradient>
<linearGradient id="paint1_linear_8083_254" x1="27.4614" y1="18.5592" x2="15.3383" y2="26.3325" gradientUnits="userSpaceOnUse">
<stop stop-color="#F64737"/>
<stop offset="1" stop-color="#F56937"/>
</linearGradient>
<linearGradient id="paint2_linear_8083_254" x1="37.6452" y1="20.076" x2="44.7287" y2="23.3781" gradientUnits="userSpaceOnUse">
<stop stop-color="#F35E11" stop-opacity="0"/>
<stop offset="0.545433" stop-color="#F35E11" stop-opacity="0.37"/>
<stop offset="1" stop-color="#F35E11" stop-opacity="0"/>
</linearGradient>
<linearGradient id="paint3_linear_8083_254" x1="33.0437" y1="31.3901" x2="27.0582" y2="36.7326" gradientUnits="userSpaceOnUse">
<stop stop-color="#F35E11" stop-opacity="0"/>
<stop offset="0.545433" stop-color="#DB1600"/>
<stop offset="1" stop-color="#F35E11" stop-opacity="0"/>
</linearGradient>
<linearGradient id="paint4_linear_8083_254" x1="33.0437" y1="31.3901" x2="27.0582" y2="36.7326" gradientUnits="userSpaceOnUse">
<stop stop-color="#F35E11" stop-opacity="0"/>
<stop offset="0.545433" stop-color="#DB1600"/>
<stop offset="1" stop-color="#F35E11" stop-opacity="0"/>
</linearGradient>
<linearGradient id="paint5_linear_8083_254" x1="41.9271" y1="17.5767" x2="41.9271" y2="22.9814" gradientUnits="userSpaceOnUse">
<stop stop-color="#FFBC04"/>
<stop offset="1" stop-color="#FFBC04"/>
</linearGradient>
<clipPath id="clip0_8083_254">
<rect width="34.8945" height="34.8945" fill="white" transform="translate(13.5137 5.10559)"/>
</clipPath>
</defs>
</svg>
