<svg width="180" height="180" viewBox="0 0 180 180" fill="none" xmlns="http://www.w3.org/2000/svg">
<path d="M0 24C0 10.7452 10.7452 0 24 0H156C169.255 0 180 10.7452 180 24V156C180 169.255 169.255 180 156 180H24C10.7452 180 0 169.255 0 156V24Z" fill="#FF6E01"/>
<g clip-path="url(#clip0_5397_1529)">
<path d="M98.9385 30.8346C117.975 29.7943 130.753 41.942 134.156 56.772C135.866 64.2199 135.22 72.3115 131.993 79.7554C138.144 84.07 143.051 90.3428 146.041 97.1911C151.675 110.098 151.203 126.557 138.778 138.781C126.437 150.921 111.477 151.12 99.4855 146.244C95.1958 144.5 91.1394 142.048 87.595 139.16C81.2974 144.272 72.8894 147.651 62.6274 146.954C52.0044 146.232 43.6963 141.989 38.0291 135.6C32.423 129.279 29.6833 121.181 29.5088 113.129C29.1617 97.1105 39.0856 80.0688 58.7934 76.3611C61.0359 75.9393 64.9848 75.1758 69.7966 75.7624C73.3743 76.1986 77.2905 77.357 81.3713 79.7199C84.0243 81.2562 84.4032 84.7996 82.4967 87.2005C80.5901 89.6017 77.1323 89.9058 74.375 88.565C72.173 87.4943 70.1829 86.994 68.4528 86.7831C65.4834 86.4212 63.0062 86.8659 60.8463 87.2722C47.4036 89.8011 40.3572 101.298 40.6084 112.889C40.7331 118.642 42.6847 124.117 46.3356 128.233C49.9255 132.28 55.4406 135.337 63.3798 135.877C70.0452 136.329 75.5987 134.324 79.8993 131.095C77.7898 128.179 76.2183 125.112 75.3582 122.056C73.8181 116.586 74.0485 110.422 76.4033 105.632C77.6076 103.182 79.5012 100.847 82.2593 99.4126C85.1027 97.9337 88.3324 97.6914 91.5753 98.5705C97.9491 100.299 100.643 105.887 101.097 111.107C101.546 116.265 100.065 122.09 97.2778 127.358C96.6363 128.571 95.9109 129.777 95.1063 130.96C97.5944 132.92 100.486 134.664 103.667 135.958C112.477 139.54 122.464 139.255 130.992 130.866C139.436 122.559 140.088 111.305 135.866 101.633C133.608 96.4616 130.145 92.1509 126.119 89.2075C123.146 92.7305 119.412 95.9065 114.878 98.5374C109.627 101.584 104.312 102.598 99.73 101.058C95.0172 99.4738 92.0411 95.4532 91.6506 90.8598C91.2643 86.3132 93.4083 81.8362 97.3875 78.7085C101.349 75.5946 107.002 73.8475 114.079 73.8475C116.804 73.8475 119.446 74.2324 121.976 74.9414C124.125 69.7606 124.481 64.2448 123.336 59.2555C121.033 49.2219 112.719 41.201 99.5445 41.921C92.3612 42.3136 86.964 46.2447 83.5911 51.5472C81.4019 54.9889 80.2161 58.7746 79.9364 62.1896C79.6862 65.2451 78.2145 69.1757 75.0166 69.1757C72.0615 69.993 69.4518 67.2023 69.2974 64.1401C68.9658 57.5625 70.4553 51.5102 74.2227 45.5875C79.1737 37.8041 87.5825 31.4553 98.9385 30.8346ZM88.6702 109.286C87.7903 109.048 87.4687 109.218 87.383 109.262C87.2122 109.351 86.7984 109.652 86.3668 110.53C85.4495 112.396 85.0927 115.662 86.0457 119.048C86.3317 120.063 86.7924 121.147 87.4113 122.263C87.4284 122.231 87.4467 122.199 87.4637 122.167C89.524 118.271 90.2556 114.584 90.0369 112.069C89.8235 109.615 88.9702 109.368 88.6702 109.286ZM114.079 84.9501C108.735 84.9501 105.733 86.2704 104.248 87.4372C102.782 88.59 102.687 89.6078 102.713 89.9195C102.736 90.1842 102.824 90.3845 103.267 90.5333C103.841 90.7261 105.775 90.9832 109.306 88.9341C111.367 87.738 113.192 86.4041 114.794 84.9664C114.556 84.9563 114.318 84.9501 114.079 84.9501Z" fill="white"/>
</g>
<defs>
<clipPath id="clip0_5397_1529">
<rect width="120" height="120" fill="white" transform="translate(29.5 30)"/>
</clipPath>
</defs>
</svg>
